<svg fill="#000000" xmlns="http://www.w3.org/2000/svg"  viewBox="0 0 50 50" width="50px" height="50px"><path d="M 25 9 C 18.18208 9 12.014509 10.704877 7.4824219 13.539062 C 2.950335 16.37325 1.1842379e-15 20.420281 0 25 C 0 29.579719 2.950335 33.62675 7.4824219 36.460938 C 12.014509 39.295124 18.18208 41 25 41 C 31.81792 41 37.985491 39.295124 42.517578 36.460938 C 47.049665 33.62675 50 29.579719 50 25 C 50 20.465041 47.050143 16.424446 42.519531 13.578125 C 37.988919 10.731804 31.820426 9 25 9 z M 25 11 C 31.479574 11 37.31069 12.667805 41.455078 15.271484 C 45.599466 17.875163 48 21.334959 48 25 C 48 28.720281 45.599944 32.172859 41.457031 34.763672 C 37.314118 37.354485 31.48208 39 25 39 C 18.51792 39 12.685882 37.354485 8.5429688 34.763672 C 4.4000555 32.172859 2 28.720281 2 25 C 2 21.279719 4.4000555 17.827141 8.5429688 15.236328 C 12.685882 12.645515 18.51792 11 25 11 z M 22.099609 14.5 L 21.5 20.400391 C 20.1 26.300391 12 21.6 17 15 C 9.9 16.6 5.1 20.600781 5 24.800781 C 5.1 26.700781 6.2 28.700391 8 30.400391 C 9.3 31.600391 11 33.2 13 34 C 9.7 29.2 16.1 26.8 19 32 C 20.1 27.8 23.9 30.7 25 36 C 26.1 30.7 29.9 27.8 31 32 C 33.9 26.8 40.3 29.2 37 34 C 39 33.2 40.7 31.6 42 30.5 C 43.8 28.8 44.9 26.800391 45 24.900391 C 44.9 20.700391 40.1 16.7 33 15 C 38 21.6 29.9 26.200391 28.5 20.400391 L 27.900391 14.5 L 26.5 16 L 25 16 L 23.5 16 L 22.099609 14.5 z"/></svg>